<svg version="1.1" id="Layer_1" xmlns="http://www.w3.org/2000/svg" xmlns:xlink="http://www.w3.org/1999/xlink" x="0px" y="0px"
	 width="100%" viewBox="0 0 850 268" xml:space="preserve">

<path fill="#030303" opacity="1.000000" stroke="none" 
	d="
M623.157349,80.842819 
	C642.875183,100.650871 662.348816,120.203224 682.735474,140.672348 
	C682.735474,118.556038 682.735474,97.835434 682.735474,76.817612 
	C695.581848,76.817612 707.998291,76.817612 720.668396,76.817612 
	C720.668396,127.059647 720.668396,177.091980 720.668396,227.679169 
	C690.428284,197.567978 660.572937,167.839981 630.125000,137.521851 
	C630.125000,160.013214 630.125000,181.600357 630.125000,203.595245 
	C616.956482,203.595245 604.055786,203.595245 590.779907,203.595245 
	C590.779907,152.413345 590.779907,101.041512 590.779907,48.491707 
	C601.913879,59.612572 612.413452,70.099838 623.157349,80.842819 
z"/>
<path fill="#010101" opacity="1.000000" stroke="none" 
	d="
M485.076050,194.954376 
	C485.076050,198.089447 485.076050,200.730820 485.076050,203.681656 
	C471.845673,203.681656 458.953094,203.681656 445.918732,203.681656 
	C445.918732,152.256744 445.918732,100.928360 445.918732,49.267445 
	C476.333923,79.739944 506.402588,109.865288 536.471252,139.990616 
	C536.877808,139.800674 537.284363,139.610733 537.690918,139.420776 
	C537.690918,118.645454 537.690918,97.870125 537.690918,76.815483 
	C550.710510,76.815483 563.095276,76.815483 575.720764,76.815483 
	C575.720764,127.039459 575.720764,176.979813 575.720764,226.091492 
	C546.328979,196.834656 516.480652,167.123383 486.632294,137.412109 
	C486.113556,137.720642 485.594788,138.029160 485.076050,138.337692 
	C485.076050,157.045364 485.076050,175.753021 485.076050,194.954376 
z"/>
<path fill="#010101" opacity="1.000000" stroke="none" 
	d="
M363.007507,204.000702 
	C352.215942,205.838409 344.804230,201.788742 337.965240,194.016068 
	C328.972046,183.795212 318.769073,174.638809 308.401428,164.344666 
	C317.483459,155.930359 326.311096,147.751724 335.387878,139.342285 
	C325.687195,129.811127 317.278656,121.549553 307.603455,112.043427 
	C312.861206,107.328056 317.774567,103.180267 322.388031,98.722092 
	C328.973175,92.358597 335.260406,85.686440 341.860107,79.338707 
	C343.272858,77.979912 345.473694,76.658623 347.318878,76.648338 
	C376.295502,76.486877 405.273285,76.541756 434.250824,76.562782 
	C434.714478,76.563118 435.178040,76.762466 436.141266,76.983688 
	C435.181946,78.153519 434.479248,79.171738 433.619781,80.033691 
	C424.216125,89.465202 414.870667,98.958076 405.283783,108.200279 
	C403.714783,109.712860 401.082245,110.774879 398.890289,110.869965 
	C391.410156,111.194481 383.857208,111.535736 376.426453,110.849091 
	C368.229950,110.091698 362.287689,112.684944 358.202911,120.329887 
	C364.020386,126.068428 370.139832,132.104843 376.985382,138.857513 
	C369.870850,145.421066 363.045471,151.717865 356.370422,157.875946 
	C361.225067,165.247787 366.565308,169.120590 375.294067,168.215027 
	C383.861847,167.326202 392.597168,167.896072 401.251465,168.117996 
	C403.187134,168.167633 405.565613,168.931503 406.935699,170.221207 
	C418.201233,180.825989 429.276733,191.632675 440.409851,202.378128 
	C440.124451,202.918976 439.839020,203.459839 439.553619,204.000702 
	C414.204376,204.000702 388.855103,204.000702 363.007507,204.000702 
z"/>
<path fill="#020202" opacity="1.000000" stroke="none" 
	d="
M146.675293,153.324860 
	C151.510574,158.355591 156.094162,163.137817 161.716843,169.004150 
	C161.716843,154.026764 161.716843,140.679916 161.716843,126.412025 
	C163.315338,127.523178 164.274017,127.990150 164.976608,128.707825 
	C175.691376,139.652695 186.396469,150.607437 197.025574,161.635269 
	C198.108200,162.758514 199.372849,164.357132 199.393051,165.751968 
	C199.575882,178.371063 199.500107,190.993927 199.500107,204.000580 
	C181.611984,204.000580 164.161118,204.032669 146.711075,203.926651 
	C145.576660,203.919754 144.208237,203.093307 143.352905,202.241943 
	C122.119682,181.106705 100.941025,159.916611 80.083977,139.067459 
	C109.852631,109.351471 139.456390,79.800102 168.961456,50.347237 
	C169.003052,51.008812 169.165512,52.407215 169.167389,53.805836 
	C169.186264,67.961288 169.071655,82.118164 169.255478,96.271255 
	C169.300552,99.742195 168.173508,102.067917 165.722000,104.483803 
	C154.467300,115.574989 143.436981,126.893890 131.578445,138.887253 
	C136.433121,143.527374 141.428360,148.301865 146.675293,153.324860 
z"/>
<path fill="#020202" opacity="1.000000" stroke="none" 
	d="
M214.162689,87.055740 
	C214.162689,83.424080 214.162689,80.282303 214.162689,76.830185 
	C227.389084,76.830185 240.293777,76.830185 253.682983,76.830185 
	C253.682983,106.188034 253.682983,135.379120 253.682983,165.002533 
	C267.771210,165.002533 281.383301,165.128036 294.990082,164.914795 
	C298.415466,164.861115 300.341156,165.920776 302.004242,168.890808 
	C308.469635,180.437119 315.179504,191.846497 322.065491,203.769226 
	C285.858276,203.769226 250.322617,203.769226 214.162689,203.769226 
	C214.162689,164.996002 214.162689,126.270805 214.162689,87.055740 
z"/>
</svg>